<svg width="200" height="200" viewBox="0 0 200 200" fill="none" xmlns="http://www.w3.org/2000/svg">
  <!-- Background circle -->
  <circle cx="100" cy="100" r="95" fill="#EFF6FF" stroke="#3B82F6" stroke-width="2"/>
  
  <!-- Main building/civic shape -->
  <path d="M 60 140 L 60 70 L 100 50 L 140 70 L 140 140 Z" fill="#3B82F6" stroke="#1E40AF" stroke-width="2"/>
  
  <!-- Windows representing the community -->
  <rect x="70" y="80" width="12" height="12" fill="#F3F4F6" stroke="#1E40AF" stroke-width="1"/>
  <rect x="88" y="80" width="12" height="12" fill="#F3F4F6" stroke="#1E40AF" stroke-width="1"/>
  <rect x="106" y="80" width="12" height="12" fill="#F3F4F6" stroke="#1E40AF" stroke-width="1"/>
  <rect x="124" y="80" width="12" height="12" fill="#F3F4F6" stroke="#1E40AF" stroke-width="1"/>
  
  <rect x="70" y="100" width="12" height="12" fill="#F3F4F6" stroke="#1E40AF" stroke-width="1"/>
  <rect x="88" y="100" width="12" height="12" fill="#DBEAFE" stroke="#1E40AF" stroke-width="1"/>
  <rect x="106" y="100" width="12" height="12" fill="#DBEAFE" stroke="#1E40AF" stroke-width="1"/>
  <rect x="124" y="100" width="12" height="12" fill="#F3F4F6" stroke="#1E40AF" stroke-width="1"/>
  
  <rect x="70" y="120" width="12" height="12" fill="#F3F4F6" stroke="#1E40AF" stroke-width="1"/>
  <rect x="88" y="120" width="12" height="12" fill="#F3F4F6" stroke="#1E40AF" stroke-width="1"/>
  <rect x="106" y="120" width="12" height="12" fill="#F3F4F6" stroke="#1E40AF" stroke-width="1"/>
  <rect x="124" y="120" width="12" height="12" fill="#F3F4F6" stroke="#1E40AF" stroke-width="1"/>
  
  <!-- Door -->
  <rect x="93" y="128" width="14" height="18" fill="#7C3AED" stroke="#1E40AF" stroke-width="1"/>
  <circle cx="104" cy="137" r="2" fill="#F3F4F6"/>
  
  <!-- People icons - representing civic engagement -->
  <circle cx="50" cy="130" r="4" fill="#10B981"/>
  <circle cx="150" cy="135" r="4" fill="#10B981"/>
  <circle cx="55" cy="145" r="3" fill="#3B82F6"/>
  <circle cx="145" cy="145" r="3" fill="#3B82F6"/>
  
  <!-- Connection lines - representing community -->
  <line x1="54" y1="133" x2="60" y2="140" stroke="#10B981" stroke-width="1.5" opacity="0.6"/>
  <line x1="146" y1="138" x2="140" y2="140" stroke="#10B981" stroke-width="1.5" opacity="0.6"/>
  
  <!-- Checkmark - representing resolution -->
  <path d="M 165 55 L 170 60 L 180 50" stroke="#10B981" stroke-width="2.5" fill="none" stroke-linecap="round" stroke-linejoin="round"/>
  
  <!-- Star - representing excellence/rewards -->
  <path d="M 30 60 L 32.5 67 L 40 67.5 L 35 72 L 37 79 L 30 75 L 23 79 L 25 72 L 20 67.5 L 27.5 67 Z" fill="#F59E0B" stroke="#F59E0B" stroke-width="0.5"/>
</svg>
